<mxfile host="app.diagrams.net" agent="Mozilla/5.0 (X11; Linux x86_64) AppleWebKit/537.36 (KHTML, like Gecko) Chrome/127.0.0.0 Safari/537.36" version="24.7.7">
  <diagram id="C5RBs43oDa-KdzZeNtuy" name="Page-1">
    <mxGraphModel dx="1279" dy="658" grid="1" gridSize="10" guides="1" tooltips="1" connect="1" arrows="1" fold="1" page="1" pageScale="1" pageWidth="827" pageHeight="1169" math="0" shadow="0">
      <root>
        <mxCell id="WIyWlLk6GJQsqaUBKTNV-0" />
        <mxCell id="WIyWlLk6GJQsqaUBKTNV-1" parent="WIyWlLk6GJQsqaUBKTNV-0" />
        <mxCell id="J6trh6Icr1Rc4E9CGpiM-0" value="StarSimple" style="rounded=0;whiteSpace=wrap;html=1;fillColor=#D7E884;strokeColor=#613E20;strokeWidth=2;fontSize=20;" vertex="1" parent="WIyWlLk6GJQsqaUBKTNV-1">
          <mxGeometry x="220" y="200" width="150" height="80" as="geometry" />
        </mxCell>
        <mxCell id="J6trh6Icr1Rc4E9CGpiM-1" value="StarAsync" style="rounded=0;whiteSpace=wrap;html=1;fillColor=#D7E884;strokeColor=#613E20;strokeWidth=2;fontSize=20;" vertex="1" parent="WIyWlLk6GJQsqaUBKTNV-1">
          <mxGeometry x="220" y="300" width="150" height="80" as="geometry" />
        </mxCell>
        <mxCell id="J6trh6Icr1Rc4E9CGpiM-2" value="RingRing&lt;div&gt;Hierarchical&lt;/div&gt;" style="rounded=0;whiteSpace=wrap;html=1;fillColor=#D7E884;strokeColor=#613E20;strokeWidth=2;fontSize=20;" vertex="1" parent="WIyWlLk6GJQsqaUBKTNV-1">
          <mxGeometry x="220" y="430" width="150" height="80" as="geometry" />
        </mxCell>
        <mxCell id="J6trh6Icr1Rc4E9CGpiM-71" value="Initialize individuals" style="text;html=1;align=center;verticalAlign=middle;whiteSpace=wrap;rounded=0;fontFamily=Helvetica;fontSize=20;fontColor=default;" vertex="1" parent="WIyWlLk6GJQsqaUBKTNV-1">
          <mxGeometry x="260" y="150" width="60" height="30" as="geometry" />
        </mxCell>
        <mxCell id="J6trh6Icr1Rc4E9CGpiM-72" value="Step 1:&lt;div style=&quot;font-size: 20px;&quot;&gt;Run simulations&lt;/div&gt;" style="text;html=1;align=center;verticalAlign=middle;whiteSpace=wrap;rounded=0;fontFamily=Helvetica;fontSize=20;fontColor=default;" vertex="1" parent="WIyWlLk6GJQsqaUBKTNV-1">
          <mxGeometry x="386" y="135" width="154" height="50" as="geometry" />
        </mxCell>
        <mxCell id="J6trh6Icr1Rc4E9CGpiM-73" value="Step 2:&lt;div style=&quot;font-size: 20px;&quot;&gt;Sort results&lt;/div&gt;" style="text;html=1;align=center;verticalAlign=middle;whiteSpace=wrap;rounded=0;fontFamily=Helvetica;fontSize=20;fontColor=default;" vertex="1" parent="WIyWlLk6GJQsqaUBKTNV-1">
          <mxGeometry x="580" y="150" width="112" height="30" as="geometry" />
        </mxCell>
        <mxCell id="J6trh6Icr1Rc4E9CGpiM-85" value="Step 3:&lt;div style=&quot;font-size: 20px;&quot;&gt;Remove worse configurations&lt;/div&gt;" style="text;html=1;align=center;verticalAlign=middle;whiteSpace=wrap;rounded=0;fontFamily=Helvetica;fontSize=20;fontColor=default;" vertex="1" parent="WIyWlLk6GJQsqaUBKTNV-1">
          <mxGeometry x="746" y="142" width="150" height="40" as="geometry" />
        </mxCell>
        <mxCell id="J6trh6Icr1Rc4E9CGpiM-123" value="" style="rounded=0;whiteSpace=wrap;html=1;strokeColor=none;strokeWidth=2;align=center;verticalAlign=middle;fontFamily=Helvetica;fontSize=12;fontColor=default;fillColor=#006666;" vertex="1" parent="WIyWlLk6GJQsqaUBKTNV-1">
          <mxGeometry x="560" y="200" width="16" height="80" as="geometry" />
        </mxCell>
        <mxCell id="J6trh6Icr1Rc4E9CGpiM-124" value="" style="rounded=0;whiteSpace=wrap;html=1;strokeColor=none;strokeWidth=2;align=center;verticalAlign=middle;fontFamily=Helvetica;fontSize=12;fontColor=default;fillColor=#006B6B;" vertex="1" parent="WIyWlLk6GJQsqaUBKTNV-1">
          <mxGeometry x="576" y="200" width="16" height="80" as="geometry" />
        </mxCell>
        <mxCell id="J6trh6Icr1Rc4E9CGpiM-125" value="" style="rounded=0;whiteSpace=wrap;html=1;strokeColor=none;strokeWidth=2;align=center;verticalAlign=middle;fontFamily=Helvetica;fontSize=12;fontColor=default;fillColor=#007D7D;" vertex="1" parent="WIyWlLk6GJQsqaUBKTNV-1">
          <mxGeometry x="592" y="200" width="16" height="80" as="geometry" />
        </mxCell>
        <mxCell id="J6trh6Icr1Rc4E9CGpiM-126" value="" style="rounded=0;whiteSpace=wrap;html=1;strokeColor=none;strokeWidth=2;align=center;verticalAlign=middle;fontFamily=Helvetica;fontSize=12;fontColor=default;fillColor=#008A8A;" vertex="1" parent="WIyWlLk6GJQsqaUBKTNV-1">
          <mxGeometry x="608" y="200" width="16" height="80" as="geometry" />
        </mxCell>
        <mxCell id="J6trh6Icr1Rc4E9CGpiM-127" value="" style="rounded=0;whiteSpace=wrap;html=1;strokeColor=none;strokeWidth=2;align=center;verticalAlign=middle;fontFamily=Helvetica;fontSize=12;fontColor=default;fillColor=#009191;" vertex="1" parent="WIyWlLk6GJQsqaUBKTNV-1">
          <mxGeometry x="624" y="200" width="16" height="80" as="geometry" />
        </mxCell>
        <mxCell id="J6trh6Icr1Rc4E9CGpiM-128" value="" style="rounded=0;whiteSpace=wrap;html=1;strokeColor=none;strokeWidth=2;align=center;verticalAlign=middle;fontFamily=Helvetica;fontSize=12;fontColor=default;fillColor=#009E9E;" vertex="1" parent="WIyWlLk6GJQsqaUBKTNV-1">
          <mxGeometry x="640" y="200" width="16" height="80" as="geometry" />
        </mxCell>
        <mxCell id="J6trh6Icr1Rc4E9CGpiM-129" value="" style="rounded=0;whiteSpace=wrap;html=1;strokeColor=none;strokeWidth=2;align=center;verticalAlign=middle;fontFamily=Helvetica;fontSize=12;fontColor=default;fillColor=#00B3B3;" vertex="1" parent="WIyWlLk6GJQsqaUBKTNV-1">
          <mxGeometry x="656" y="200" width="16" height="80" as="geometry" />
        </mxCell>
        <mxCell id="J6trh6Icr1Rc4E9CGpiM-130" value="" style="rounded=0;whiteSpace=wrap;html=1;strokeColor=none;strokeWidth=2;align=center;verticalAlign=middle;fontFamily=Helvetica;fontSize=12;fontColor=default;fillColor=#00CCCC;" vertex="1" parent="WIyWlLk6GJQsqaUBKTNV-1">
          <mxGeometry x="672" y="200" width="16" height="80" as="geometry" />
        </mxCell>
        <mxCell id="J6trh6Icr1Rc4E9CGpiM-131" value="" style="rounded=0;whiteSpace=wrap;html=1;strokeColor=none;strokeWidth=2;align=center;verticalAlign=middle;fontFamily=Helvetica;fontSize=12;fontColor=default;fillColor=#00DEDE;" vertex="1" parent="WIyWlLk6GJQsqaUBKTNV-1">
          <mxGeometry x="688" y="200" width="16" height="80" as="geometry" />
        </mxCell>
        <mxCell id="J6trh6Icr1Rc4E9CGpiM-132" value="" style="rounded=0;whiteSpace=wrap;html=1;strokeColor=none;strokeWidth=2;align=center;verticalAlign=middle;fontFamily=Helvetica;fontSize=12;fontColor=default;fillColor=#00F2F2;" vertex="1" parent="WIyWlLk6GJQsqaUBKTNV-1">
          <mxGeometry x="704" y="200" width="16" height="80" as="geometry" />
        </mxCell>
        <mxCell id="J6trh6Icr1Rc4E9CGpiM-134" value="" style="rounded=0;whiteSpace=wrap;html=1;strokeColor=none;strokeWidth=2;align=center;verticalAlign=middle;fontFamily=Helvetica;fontSize=12;fontColor=default;fillColor=#006666;" vertex="1" parent="WIyWlLk6GJQsqaUBKTNV-1">
          <mxGeometry x="418" y="200" width="16" height="80" as="geometry" />
        </mxCell>
        <mxCell id="J6trh6Icr1Rc4E9CGpiM-135" value="" style="rounded=0;whiteSpace=wrap;html=1;strokeColor=none;strokeWidth=2;align=center;verticalAlign=middle;fontFamily=Helvetica;fontSize=12;fontColor=default;fillColor=#006B6B;" vertex="1" parent="WIyWlLk6GJQsqaUBKTNV-1">
          <mxGeometry x="514" y="200" width="16" height="80" as="geometry" />
        </mxCell>
        <mxCell id="J6trh6Icr1Rc4E9CGpiM-136" value="" style="rounded=0;whiteSpace=wrap;html=1;strokeColor=none;strokeWidth=2;align=center;verticalAlign=middle;fontFamily=Helvetica;fontSize=12;fontColor=default;fillColor=#007D7D;" vertex="1" parent="WIyWlLk6GJQsqaUBKTNV-1">
          <mxGeometry x="530" y="200" width="16" height="80" as="geometry" />
        </mxCell>
        <mxCell id="J6trh6Icr1Rc4E9CGpiM-137" value="" style="rounded=0;whiteSpace=wrap;html=1;strokeColor=none;strokeWidth=2;align=center;verticalAlign=middle;fontFamily=Helvetica;fontSize=12;fontColor=default;fillColor=#008A8A;" vertex="1" parent="WIyWlLk6GJQsqaUBKTNV-1">
          <mxGeometry x="466" y="200" width="16" height="80" as="geometry" />
        </mxCell>
        <mxCell id="J6trh6Icr1Rc4E9CGpiM-138" value="" style="rounded=0;whiteSpace=wrap;html=1;strokeColor=none;strokeWidth=2;align=center;verticalAlign=middle;fontFamily=Helvetica;fontSize=12;fontColor=default;fillColor=#009191;" vertex="1" parent="WIyWlLk6GJQsqaUBKTNV-1">
          <mxGeometry x="402" y="200" width="16" height="80" as="geometry" />
        </mxCell>
        <mxCell id="J6trh6Icr1Rc4E9CGpiM-139" value="" style="rounded=0;whiteSpace=wrap;html=1;strokeColor=none;strokeWidth=2;align=center;verticalAlign=middle;fontFamily=Helvetica;fontSize=12;fontColor=default;fillColor=#009E9E;" vertex="1" parent="WIyWlLk6GJQsqaUBKTNV-1">
          <mxGeometry x="498" y="200" width="16" height="80" as="geometry" />
        </mxCell>
        <mxCell id="J6trh6Icr1Rc4E9CGpiM-140" value="" style="rounded=0;whiteSpace=wrap;html=1;strokeColor=none;strokeWidth=2;align=center;verticalAlign=middle;fontFamily=Helvetica;fontSize=12;fontColor=default;fillColor=#00B3B3;" vertex="1" parent="WIyWlLk6GJQsqaUBKTNV-1">
          <mxGeometry x="450" y="200" width="16" height="80" as="geometry" />
        </mxCell>
        <mxCell id="J6trh6Icr1Rc4E9CGpiM-141" value="" style="rounded=0;whiteSpace=wrap;html=1;strokeColor=none;strokeWidth=2;align=center;verticalAlign=middle;fontFamily=Helvetica;fontSize=12;fontColor=default;fillColor=#00CCCC;" vertex="1" parent="WIyWlLk6GJQsqaUBKTNV-1">
          <mxGeometry x="482" y="200" width="16" height="80" as="geometry" />
        </mxCell>
        <mxCell id="J6trh6Icr1Rc4E9CGpiM-142" value="" style="rounded=0;whiteSpace=wrap;html=1;strokeColor=none;strokeWidth=2;align=center;verticalAlign=middle;fontFamily=Helvetica;fontSize=12;fontColor=default;fillColor=#00DEDE;" vertex="1" parent="WIyWlLk6GJQsqaUBKTNV-1">
          <mxGeometry x="386" y="200" width="16" height="80" as="geometry" />
        </mxCell>
        <mxCell id="J6trh6Icr1Rc4E9CGpiM-143" value="" style="rounded=0;whiteSpace=wrap;html=1;strokeColor=none;strokeWidth=2;align=center;verticalAlign=middle;fontFamily=Helvetica;fontSize=12;fontColor=default;fillColor=#00F2F2;" vertex="1" parent="WIyWlLk6GJQsqaUBKTNV-1">
          <mxGeometry x="434" y="200" width="16" height="80" as="geometry" />
        </mxCell>
        <mxCell id="J6trh6Icr1Rc4E9CGpiM-146" value="" style="rounded=0;whiteSpace=wrap;html=1;strokeColor=none;strokeWidth=2;align=center;verticalAlign=middle;fontFamily=Helvetica;fontSize=12;fontColor=default;fillColor=#006666;" vertex="1" parent="WIyWlLk6GJQsqaUBKTNV-1">
          <mxGeometry x="740" y="200" width="16" height="80" as="geometry" />
        </mxCell>
        <mxCell id="J6trh6Icr1Rc4E9CGpiM-147" value="" style="rounded=0;whiteSpace=wrap;html=1;strokeColor=none;strokeWidth=2;align=center;verticalAlign=middle;fontFamily=Helvetica;fontSize=12;fontColor=default;fillColor=#006B6B;" vertex="1" parent="WIyWlLk6GJQsqaUBKTNV-1">
          <mxGeometry x="756" y="200" width="16" height="80" as="geometry" />
        </mxCell>
        <mxCell id="J6trh6Icr1Rc4E9CGpiM-148" value="" style="rounded=0;whiteSpace=wrap;html=1;strokeColor=none;strokeWidth=2;align=center;verticalAlign=middle;fontFamily=Helvetica;fontSize=12;fontColor=default;fillColor=#007D7D;" vertex="1" parent="WIyWlLk6GJQsqaUBKTNV-1">
          <mxGeometry x="772" y="200" width="16" height="80" as="geometry" />
        </mxCell>
        <mxCell id="J6trh6Icr1Rc4E9CGpiM-149" value="" style="rounded=0;whiteSpace=wrap;html=1;strokeColor=none;strokeWidth=2;align=center;verticalAlign=middle;fontFamily=Helvetica;fontSize=12;fontColor=default;fillColor=#008A8A;" vertex="1" parent="WIyWlLk6GJQsqaUBKTNV-1">
          <mxGeometry x="788" y="200" width="16" height="80" as="geometry" />
        </mxCell>
        <mxCell id="J6trh6Icr1Rc4E9CGpiM-150" value="" style="rounded=0;whiteSpace=wrap;html=1;strokeColor=none;strokeWidth=2;align=center;verticalAlign=middle;fontFamily=Helvetica;fontSize=12;fontColor=default;fillColor=#009191;" vertex="1" parent="WIyWlLk6GJQsqaUBKTNV-1">
          <mxGeometry x="804" y="200" width="16" height="80" as="geometry" />
        </mxCell>
        <mxCell id="J6trh6Icr1Rc4E9CGpiM-156" value="Step 4:&lt;div style=&quot;font-size: 20px;&quot;&gt;Clone and mutate best configurations&lt;/div&gt;" style="text;html=1;align=center;verticalAlign=middle;whiteSpace=wrap;rounded=0;fontFamily=Helvetica;fontSize=20;fontColor=default;" vertex="1" parent="WIyWlLk6GJQsqaUBKTNV-1">
          <mxGeometry x="917" y="141" width="180" height="40" as="geometry" />
        </mxCell>
        <mxCell id="J6trh6Icr1Rc4E9CGpiM-157" value="" style="rounded=0;whiteSpace=wrap;html=1;strokeColor=none;strokeWidth=2;align=center;verticalAlign=middle;fontFamily=Helvetica;fontSize=12;fontColor=default;fillColor=#006666;" vertex="1" parent="WIyWlLk6GJQsqaUBKTNV-1">
          <mxGeometry x="920" y="200" width="16" height="80" as="geometry" />
        </mxCell>
        <mxCell id="J6trh6Icr1Rc4E9CGpiM-158" value="" style="rounded=0;whiteSpace=wrap;html=1;strokeColor=none;strokeWidth=2;align=center;verticalAlign=middle;fontFamily=Helvetica;fontSize=12;fontColor=default;fillColor=#006B6B;" vertex="1" parent="WIyWlLk6GJQsqaUBKTNV-1">
          <mxGeometry x="936" y="200" width="16" height="80" as="geometry" />
        </mxCell>
        <mxCell id="J6trh6Icr1Rc4E9CGpiM-159" value="" style="rounded=0;whiteSpace=wrap;html=1;strokeColor=none;strokeWidth=2;align=center;verticalAlign=middle;fontFamily=Helvetica;fontSize=12;fontColor=default;fillColor=#007D7D;" vertex="1" parent="WIyWlLk6GJQsqaUBKTNV-1">
          <mxGeometry x="952" y="200" width="16" height="80" as="geometry" />
        </mxCell>
        <mxCell id="J6trh6Icr1Rc4E9CGpiM-160" value="" style="rounded=0;whiteSpace=wrap;html=1;strokeColor=none;strokeWidth=2;align=center;verticalAlign=middle;fontFamily=Helvetica;fontSize=12;fontColor=default;fillColor=#008A8A;" vertex="1" parent="WIyWlLk6GJQsqaUBKTNV-1">
          <mxGeometry x="968" y="200" width="16" height="80" as="geometry" />
        </mxCell>
        <mxCell id="J6trh6Icr1Rc4E9CGpiM-161" value="" style="rounded=0;whiteSpace=wrap;html=1;strokeColor=none;strokeWidth=2;align=center;verticalAlign=middle;fontFamily=Helvetica;fontSize=12;fontColor=default;fillColor=#009191;" vertex="1" parent="WIyWlLk6GJQsqaUBKTNV-1">
          <mxGeometry x="984" y="200" width="16" height="80" as="geometry" />
        </mxCell>
        <mxCell id="J6trh6Icr1Rc4E9CGpiM-162" value="" style="rounded=0;whiteSpace=wrap;html=1;strokeColor=#FFFFFF;strokeWidth=1;align=center;verticalAlign=middle;fontFamily=Helvetica;fontSize=12;fontColor=default;fillColor=#006666;glass=0;shadow=0;dashed=1;" vertex="1" parent="WIyWlLk6GJQsqaUBKTNV-1">
          <mxGeometry x="1010" y="200" width="16" height="80" as="geometry" />
        </mxCell>
        <mxCell id="J6trh6Icr1Rc4E9CGpiM-163" value="" style="rounded=0;whiteSpace=wrap;html=1;strokeColor=#FFFFFF;strokeWidth=1;align=center;verticalAlign=middle;fontFamily=Helvetica;fontSize=12;fontColor=default;fillColor=#006B6B;glass=0;shadow=0;dashed=1;" vertex="1" parent="WIyWlLk6GJQsqaUBKTNV-1">
          <mxGeometry x="1026" y="200" width="16" height="80" as="geometry" />
        </mxCell>
        <mxCell id="J6trh6Icr1Rc4E9CGpiM-164" value="" style="rounded=0;whiteSpace=wrap;html=1;strokeColor=#FFFFFF;strokeWidth=1;align=center;verticalAlign=middle;fontFamily=Helvetica;fontSize=12;fontColor=default;fillColor=#007D7D;glass=0;shadow=0;dashed=1;" vertex="1" parent="WIyWlLk6GJQsqaUBKTNV-1">
          <mxGeometry x="1042" y="200" width="16" height="80" as="geometry" />
        </mxCell>
        <mxCell id="J6trh6Icr1Rc4E9CGpiM-165" value="" style="rounded=0;whiteSpace=wrap;html=1;strokeColor=#FFFFFF;strokeWidth=1;align=center;verticalAlign=middle;fontFamily=Helvetica;fontSize=12;fontColor=default;fillColor=#008A8A;glass=0;shadow=0;dashed=1;" vertex="1" parent="WIyWlLk6GJQsqaUBKTNV-1">
          <mxGeometry x="1058" y="200" width="16" height="80" as="geometry" />
        </mxCell>
        <mxCell id="J6trh6Icr1Rc4E9CGpiM-289" style="edgeStyle=orthogonalEdgeStyle;rounded=0;orthogonalLoop=1;jettySize=auto;html=1;entryX=0.5;entryY=0;entryDx=0;entryDy=0;fontFamily=Helvetica;fontSize=12;fontColor=default;strokeWidth=2;" edge="1" parent="WIyWlLk6GJQsqaUBKTNV-1" source="J6trh6Icr1Rc4E9CGpiM-166" target="J6trh6Icr1Rc4E9CGpiM-72">
          <mxGeometry relative="1" as="geometry">
            <Array as="points">
              <mxPoint x="1110" y="240" />
              <mxPoint x="1110" y="115" />
              <mxPoint x="463" y="115" />
            </Array>
          </mxGeometry>
        </mxCell>
        <mxCell id="J6trh6Icr1Rc4E9CGpiM-166" value="" style="rounded=0;whiteSpace=wrap;html=1;strokeColor=#FFFFFF;strokeWidth=1;align=center;verticalAlign=middle;fontFamily=Helvetica;fontSize=12;fontColor=default;fillColor=#009191;glass=0;shadow=0;dashed=1;" vertex="1" parent="WIyWlLk6GJQsqaUBKTNV-1">
          <mxGeometry x="1074" y="200" width="16" height="80" as="geometry" />
        </mxCell>
        <mxCell id="J6trh6Icr1Rc4E9CGpiM-178" value="" style="rounded=0;whiteSpace=wrap;html=1;strokeColor=none;strokeWidth=2;align=center;verticalAlign=middle;fontFamily=Helvetica;fontSize=12;fontColor=default;fillColor=#006666;" vertex="1" parent="WIyWlLk6GJQsqaUBKTNV-1">
          <mxGeometry x="560" y="300" width="16" height="80" as="geometry" />
        </mxCell>
        <mxCell id="J6trh6Icr1Rc4E9CGpiM-179" value="" style="rounded=0;whiteSpace=wrap;html=1;strokeColor=none;strokeWidth=2;align=center;verticalAlign=middle;fontFamily=Helvetica;fontSize=12;fontColor=default;fillColor=#006B6B;" vertex="1" parent="WIyWlLk6GJQsqaUBKTNV-1">
          <mxGeometry x="576" y="300" width="16" height="80" as="geometry" />
        </mxCell>
        <mxCell id="J6trh6Icr1Rc4E9CGpiM-186" value="" style="rounded=0;whiteSpace=wrap;html=1;strokeColor=none;strokeWidth=2;align=center;verticalAlign=middle;fontFamily=Helvetica;fontSize=12;fontColor=default;fillColor=#00DEDE;" vertex="1" parent="WIyWlLk6GJQsqaUBKTNV-1">
          <mxGeometry x="688" y="300" width="16" height="80" as="geometry" />
        </mxCell>
        <mxCell id="J6trh6Icr1Rc4E9CGpiM-187" value="" style="rounded=0;whiteSpace=wrap;html=1;strokeColor=none;strokeWidth=2;align=center;verticalAlign=middle;fontFamily=Helvetica;fontSize=12;fontColor=default;fillColor=#00F2F2;" vertex="1" parent="WIyWlLk6GJQsqaUBKTNV-1">
          <mxGeometry x="704" y="300" width="16" height="80" as="geometry" />
        </mxCell>
        <mxCell id="J6trh6Icr1Rc4E9CGpiM-188" value="" style="rounded=0;whiteSpace=wrap;html=1;strokeColor=none;strokeWidth=2;align=center;verticalAlign=middle;fontFamily=Helvetica;fontSize=12;fontColor=default;fillColor=#006B6B;" vertex="1" parent="WIyWlLk6GJQsqaUBKTNV-1">
          <mxGeometry x="592" y="300" width="16" height="80" as="geometry" />
        </mxCell>
        <mxCell id="J6trh6Icr1Rc4E9CGpiM-189" value="" style="rounded=0;whiteSpace=wrap;html=1;strokeColor=none;strokeWidth=2;align=center;verticalAlign=middle;fontFamily=Helvetica;fontSize=12;fontColor=default;fillColor=#006B6B;" vertex="1" parent="WIyWlLk6GJQsqaUBKTNV-1">
          <mxGeometry x="608" y="300" width="16" height="80" as="geometry" />
        </mxCell>
        <mxCell id="J6trh6Icr1Rc4E9CGpiM-190" value="" style="rounded=0;whiteSpace=wrap;html=1;strokeColor=none;strokeWidth=2;align=center;verticalAlign=middle;fontFamily=Helvetica;fontSize=12;fontColor=default;fillColor=#007D7D;" vertex="1" parent="WIyWlLk6GJQsqaUBKTNV-1">
          <mxGeometry x="624" y="300" width="16" height="80" as="geometry" />
        </mxCell>
        <mxCell id="J6trh6Icr1Rc4E9CGpiM-191" value="" style="rounded=0;whiteSpace=wrap;html=1;strokeColor=none;strokeWidth=2;align=center;verticalAlign=middle;fontFamily=Helvetica;fontSize=12;fontColor=default;fillColor=#008A8A;" vertex="1" parent="WIyWlLk6GJQsqaUBKTNV-1">
          <mxGeometry x="640" y="300" width="16" height="80" as="geometry" />
        </mxCell>
        <mxCell id="J6trh6Icr1Rc4E9CGpiM-192" value="" style="rounded=0;whiteSpace=wrap;html=1;strokeColor=none;strokeWidth=2;align=center;verticalAlign=middle;fontFamily=Helvetica;fontSize=12;fontColor=default;fillColor=#009191;" vertex="1" parent="WIyWlLk6GJQsqaUBKTNV-1">
          <mxGeometry x="656" y="300" width="16" height="80" as="geometry" />
        </mxCell>
        <mxCell id="J6trh6Icr1Rc4E9CGpiM-193" value="" style="rounded=0;whiteSpace=wrap;html=1;strokeColor=none;strokeWidth=2;align=center;verticalAlign=middle;fontFamily=Helvetica;fontSize=12;fontColor=default;fillColor=#009E9E;" vertex="1" parent="WIyWlLk6GJQsqaUBKTNV-1">
          <mxGeometry x="672" y="300" width="16" height="80" as="geometry" />
        </mxCell>
        <mxCell id="J6trh6Icr1Rc4E9CGpiM-196" value="" style="rounded=0;whiteSpace=wrap;html=1;strokeColor=none;strokeWidth=2;align=center;verticalAlign=middle;fontFamily=Helvetica;fontSize=12;fontColor=default;fillColor=#006666;" vertex="1" parent="WIyWlLk6GJQsqaUBKTNV-1">
          <mxGeometry x="402" y="300" width="16" height="80" as="geometry" />
        </mxCell>
        <mxCell id="J6trh6Icr1Rc4E9CGpiM-197" value="" style="rounded=0;whiteSpace=wrap;html=1;strokeColor=none;strokeWidth=2;align=center;verticalAlign=middle;fontFamily=Helvetica;fontSize=12;fontColor=default;fillColor=#006B6B;" vertex="1" parent="WIyWlLk6GJQsqaUBKTNV-1">
          <mxGeometry x="418" y="300" width="16" height="80" as="geometry" />
        </mxCell>
        <mxCell id="J6trh6Icr1Rc4E9CGpiM-198" value="" style="rounded=0;whiteSpace=wrap;html=1;strokeColor=none;strokeWidth=2;align=center;verticalAlign=middle;fontFamily=Helvetica;fontSize=12;fontColor=default;fillColor=#00DEDE;" vertex="1" parent="WIyWlLk6GJQsqaUBKTNV-1">
          <mxGeometry x="466" y="300" width="16" height="80" as="geometry" />
        </mxCell>
        <mxCell id="J6trh6Icr1Rc4E9CGpiM-199" value="" style="rounded=0;whiteSpace=wrap;html=1;strokeColor=none;strokeWidth=2;align=center;verticalAlign=middle;fontFamily=Helvetica;fontSize=12;fontColor=default;fillColor=#00F2F2;" vertex="1" parent="WIyWlLk6GJQsqaUBKTNV-1">
          <mxGeometry x="386" y="300" width="16" height="80" as="geometry" />
        </mxCell>
        <mxCell id="J6trh6Icr1Rc4E9CGpiM-200" value="" style="rounded=0;whiteSpace=wrap;html=1;strokeColor=none;strokeWidth=2;align=center;verticalAlign=middle;fontFamily=Helvetica;fontSize=12;fontColor=default;fillColor=#006B6B;" vertex="1" parent="WIyWlLk6GJQsqaUBKTNV-1">
          <mxGeometry x="434" y="300" width="16" height="80" as="geometry" />
        </mxCell>
        <mxCell id="J6trh6Icr1Rc4E9CGpiM-201" value="" style="rounded=0;whiteSpace=wrap;html=1;strokeColor=none;strokeWidth=2;align=center;verticalAlign=middle;fontFamily=Helvetica;fontSize=12;fontColor=default;fillColor=#006B6B;" vertex="1" parent="WIyWlLk6GJQsqaUBKTNV-1">
          <mxGeometry x="482" y="300" width="16" height="80" as="geometry" />
        </mxCell>
        <mxCell id="J6trh6Icr1Rc4E9CGpiM-202" value="" style="rounded=0;whiteSpace=wrap;html=1;strokeColor=none;strokeWidth=2;align=center;verticalAlign=middle;fontFamily=Helvetica;fontSize=12;fontColor=default;fillColor=#007D7D;" vertex="1" parent="WIyWlLk6GJQsqaUBKTNV-1">
          <mxGeometry x="530" y="300" width="16" height="80" as="geometry" />
        </mxCell>
        <mxCell id="J6trh6Icr1Rc4E9CGpiM-203" value="" style="rounded=0;whiteSpace=wrap;html=1;strokeColor=none;strokeWidth=2;align=center;verticalAlign=middle;fontFamily=Helvetica;fontSize=12;fontColor=default;fillColor=#008A8A;" vertex="1" parent="WIyWlLk6GJQsqaUBKTNV-1">
          <mxGeometry x="450" y="300" width="16" height="80" as="geometry" />
        </mxCell>
        <mxCell id="J6trh6Icr1Rc4E9CGpiM-204" value="" style="rounded=0;whiteSpace=wrap;html=1;strokeColor=none;strokeWidth=2;align=center;verticalAlign=middle;fontFamily=Helvetica;fontSize=12;fontColor=default;fillColor=#009191;" vertex="1" parent="WIyWlLk6GJQsqaUBKTNV-1">
          <mxGeometry x="514" y="300" width="16" height="80" as="geometry" />
        </mxCell>
        <mxCell id="J6trh6Icr1Rc4E9CGpiM-205" value="" style="rounded=0;whiteSpace=wrap;html=1;strokeColor=none;strokeWidth=2;align=center;verticalAlign=middle;fontFamily=Helvetica;fontSize=12;fontColor=default;fillColor=#009E9E;" vertex="1" parent="WIyWlLk6GJQsqaUBKTNV-1">
          <mxGeometry x="498" y="300" width="16" height="80" as="geometry" />
        </mxCell>
        <mxCell id="J6trh6Icr1Rc4E9CGpiM-206" value="" style="rounded=0;whiteSpace=wrap;html=1;strokeColor=none;strokeWidth=2;align=center;verticalAlign=middle;fontFamily=Helvetica;fontSize=12;fontColor=default;fillColor=#006666;" vertex="1" parent="WIyWlLk6GJQsqaUBKTNV-1">
          <mxGeometry x="740" y="300" width="16" height="80" as="geometry" />
        </mxCell>
        <mxCell id="J6trh6Icr1Rc4E9CGpiM-207" value="" style="rounded=0;whiteSpace=wrap;html=1;strokeColor=none;strokeWidth=2;align=center;verticalAlign=middle;fontFamily=Helvetica;fontSize=12;fontColor=default;fillColor=#006B6B;" vertex="1" parent="WIyWlLk6GJQsqaUBKTNV-1">
          <mxGeometry x="756" y="300" width="16" height="80" as="geometry" />
        </mxCell>
        <mxCell id="J6trh6Icr1Rc4E9CGpiM-208" value="" style="rounded=0;whiteSpace=wrap;html=1;strokeColor=none;strokeWidth=2;align=center;verticalAlign=middle;fontFamily=Helvetica;fontSize=12;fontColor=default;fillColor=#006B6B;" vertex="1" parent="WIyWlLk6GJQsqaUBKTNV-1">
          <mxGeometry x="772" y="300" width="16" height="80" as="geometry" />
        </mxCell>
        <mxCell id="J6trh6Icr1Rc4E9CGpiM-209" value="" style="rounded=0;whiteSpace=wrap;html=1;strokeColor=none;strokeWidth=2;align=center;verticalAlign=middle;fontFamily=Helvetica;fontSize=12;fontColor=default;fillColor=#006B6B;" vertex="1" parent="WIyWlLk6GJQsqaUBKTNV-1">
          <mxGeometry x="788" y="300" width="16" height="80" as="geometry" />
        </mxCell>
        <mxCell id="J6trh6Icr1Rc4E9CGpiM-210" value="" style="rounded=0;whiteSpace=wrap;html=1;strokeColor=none;strokeWidth=2;align=center;verticalAlign=middle;fontFamily=Helvetica;fontSize=12;fontColor=default;fillColor=#007D7D;" vertex="1" parent="WIyWlLk6GJQsqaUBKTNV-1">
          <mxGeometry x="804" y="300" width="16" height="80" as="geometry" />
        </mxCell>
        <mxCell id="J6trh6Icr1Rc4E9CGpiM-223" value="" style="rounded=0;whiteSpace=wrap;html=1;strokeColor=none;strokeWidth=2;align=center;verticalAlign=middle;fontFamily=Helvetica;fontSize=12;fontColor=default;fillColor=#00F2F2;" vertex="1" parent="WIyWlLk6GJQsqaUBKTNV-1">
          <mxGeometry x="688" y="430" width="16" height="80" as="geometry" />
        </mxCell>
        <mxCell id="J6trh6Icr1Rc4E9CGpiM-224" value="" style="rounded=0;whiteSpace=wrap;html=1;strokeColor=none;strokeWidth=2;align=center;verticalAlign=middle;fontFamily=Helvetica;fontSize=12;fontColor=default;fillColor=#00DEDE;" vertex="1" parent="WIyWlLk6GJQsqaUBKTNV-1">
          <mxGeometry x="672" y="430" width="16" height="80" as="geometry" />
        </mxCell>
        <mxCell id="J6trh6Icr1Rc4E9CGpiM-225" value="" style="rounded=0;whiteSpace=wrap;html=1;strokeColor=none;strokeWidth=2;align=center;verticalAlign=middle;fontFamily=Helvetica;fontSize=12;fontColor=default;fillColor=#00CCCC;" vertex="1" parent="WIyWlLk6GJQsqaUBKTNV-1">
          <mxGeometry x="640" y="430" width="16" height="80" as="geometry" />
        </mxCell>
        <mxCell id="J6trh6Icr1Rc4E9CGpiM-226" value="" style="rounded=0;whiteSpace=wrap;html=1;strokeColor=none;strokeWidth=2;align=center;verticalAlign=middle;fontFamily=Helvetica;fontSize=12;fontColor=default;fillColor=#00CCCC;" vertex="1" parent="WIyWlLk6GJQsqaUBKTNV-1">
          <mxGeometry x="656" y="430" width="16" height="80" as="geometry" />
        </mxCell>
        <mxCell id="J6trh6Icr1Rc4E9CGpiM-227" value="" style="rounded=0;whiteSpace=wrap;html=1;strokeColor=none;strokeWidth=2;align=center;verticalAlign=middle;fontFamily=Helvetica;fontSize=12;fontColor=default;fillColor=#008A8A;" vertex="1" parent="WIyWlLk6GJQsqaUBKTNV-1">
          <mxGeometry x="576" y="430" width="16" height="80" as="geometry" />
        </mxCell>
        <mxCell id="J6trh6Icr1Rc4E9CGpiM-228" value="" style="rounded=0;whiteSpace=wrap;html=1;strokeColor=none;strokeWidth=2;align=center;verticalAlign=middle;fontFamily=Helvetica;fontSize=12;fontColor=default;fillColor=#009191;" vertex="1" parent="WIyWlLk6GJQsqaUBKTNV-1">
          <mxGeometry x="592" y="430" width="16" height="80" as="geometry" />
        </mxCell>
        <mxCell id="J6trh6Icr1Rc4E9CGpiM-229" value="" style="rounded=0;whiteSpace=wrap;html=1;strokeColor=none;strokeWidth=2;align=center;verticalAlign=middle;fontFamily=Helvetica;fontSize=12;fontColor=default;fillColor=#009E9E;" vertex="1" parent="WIyWlLk6GJQsqaUBKTNV-1">
          <mxGeometry x="608" y="430" width="16" height="80" as="geometry" />
        </mxCell>
        <mxCell id="J6trh6Icr1Rc4E9CGpiM-230" value="" style="rounded=0;whiteSpace=wrap;html=1;strokeColor=none;strokeWidth=2;align=center;verticalAlign=middle;fontFamily=Helvetica;fontSize=12;fontColor=default;fillColor=#00B3B3;" vertex="1" parent="WIyWlLk6GJQsqaUBKTNV-1">
          <mxGeometry x="624" y="430" width="16" height="80" as="geometry" />
        </mxCell>
        <mxCell id="J6trh6Icr1Rc4E9CGpiM-231" value="" style="rounded=0;whiteSpace=wrap;html=1;strokeColor=none;strokeWidth=2;align=center;verticalAlign=middle;fontFamily=Helvetica;fontSize=12;fontColor=default;fillColor=#006666;" vertex="1" parent="WIyWlLk6GJQsqaUBKTNV-1">
          <mxGeometry x="560" y="430" width="16" height="80" as="geometry" />
        </mxCell>
        <mxCell id="J6trh6Icr1Rc4E9CGpiM-232" value="" style="rounded=0;whiteSpace=wrap;html=1;strokeColor=none;strokeWidth=2;align=center;verticalAlign=middle;fontFamily=Helvetica;fontSize=12;fontColor=default;fillColor=#00F2F2;" vertex="1" parent="WIyWlLk6GJQsqaUBKTNV-1">
          <mxGeometry x="704" y="430" width="16" height="80" as="geometry" />
        </mxCell>
        <mxCell id="J6trh6Icr1Rc4E9CGpiM-233" value="" style="rounded=0;whiteSpace=wrap;html=1;strokeColor=none;strokeWidth=2;align=center;verticalAlign=middle;fontFamily=Helvetica;fontSize=12;fontColor=default;fillColor=#00F2F2;" vertex="1" parent="WIyWlLk6GJQsqaUBKTNV-1">
          <mxGeometry x="402" y="430" width="16" height="80" as="geometry" />
        </mxCell>
        <mxCell id="J6trh6Icr1Rc4E9CGpiM-234" value="" style="rounded=0;whiteSpace=wrap;html=1;strokeColor=none;strokeWidth=2;align=center;verticalAlign=middle;fontFamily=Helvetica;fontSize=12;fontColor=default;fillColor=#00DEDE;" vertex="1" parent="WIyWlLk6GJQsqaUBKTNV-1">
          <mxGeometry x="514" y="430" width="16" height="80" as="geometry" />
        </mxCell>
        <mxCell id="J6trh6Icr1Rc4E9CGpiM-235" value="" style="rounded=0;whiteSpace=wrap;html=1;strokeColor=none;strokeWidth=2;align=center;verticalAlign=middle;fontFamily=Helvetica;fontSize=12;fontColor=default;fillColor=#00CCCC;" vertex="1" parent="WIyWlLk6GJQsqaUBKTNV-1">
          <mxGeometry x="434" y="430" width="16" height="80" as="geometry" />
        </mxCell>
        <mxCell id="J6trh6Icr1Rc4E9CGpiM-236" value="" style="rounded=0;whiteSpace=wrap;html=1;strokeColor=none;strokeWidth=2;align=center;verticalAlign=middle;fontFamily=Helvetica;fontSize=12;fontColor=default;fillColor=#00CCCC;" vertex="1" parent="WIyWlLk6GJQsqaUBKTNV-1">
          <mxGeometry x="386" y="430" width="16" height="80" as="geometry" />
        </mxCell>
        <mxCell id="J6trh6Icr1Rc4E9CGpiM-237" value="" style="rounded=0;whiteSpace=wrap;html=1;strokeColor=none;strokeWidth=2;align=center;verticalAlign=middle;fontFamily=Helvetica;fontSize=12;fontColor=default;fillColor=#008A8A;" vertex="1" parent="WIyWlLk6GJQsqaUBKTNV-1">
          <mxGeometry x="482" y="430" width="16" height="80" as="geometry" />
        </mxCell>
        <mxCell id="J6trh6Icr1Rc4E9CGpiM-238" value="" style="rounded=0;whiteSpace=wrap;html=1;strokeColor=none;strokeWidth=2;align=center;verticalAlign=middle;fontFamily=Helvetica;fontSize=12;fontColor=default;fillColor=#009191;" vertex="1" parent="WIyWlLk6GJQsqaUBKTNV-1">
          <mxGeometry x="418" y="430" width="16" height="80" as="geometry" />
        </mxCell>
        <mxCell id="J6trh6Icr1Rc4E9CGpiM-239" value="" style="rounded=0;whiteSpace=wrap;html=1;strokeColor=none;strokeWidth=2;align=center;verticalAlign=middle;fontFamily=Helvetica;fontSize=12;fontColor=default;fillColor=#009E9E;" vertex="1" parent="WIyWlLk6GJQsqaUBKTNV-1">
          <mxGeometry x="466" y="430" width="16" height="80" as="geometry" />
        </mxCell>
        <mxCell id="J6trh6Icr1Rc4E9CGpiM-240" value="" style="rounded=0;whiteSpace=wrap;html=1;strokeColor=none;strokeWidth=2;align=center;verticalAlign=middle;fontFamily=Helvetica;fontSize=12;fontColor=default;fillColor=#00B3B3;" vertex="1" parent="WIyWlLk6GJQsqaUBKTNV-1">
          <mxGeometry x="450" y="430" width="16" height="80" as="geometry" />
        </mxCell>
        <mxCell id="J6trh6Icr1Rc4E9CGpiM-241" value="" style="rounded=0;whiteSpace=wrap;html=1;strokeColor=none;strokeWidth=2;align=center;verticalAlign=middle;fontFamily=Helvetica;fontSize=12;fontColor=default;fillColor=#006666;" vertex="1" parent="WIyWlLk6GJQsqaUBKTNV-1">
          <mxGeometry x="498" y="430" width="16" height="80" as="geometry" />
        </mxCell>
        <mxCell id="J6trh6Icr1Rc4E9CGpiM-242" value="" style="rounded=0;whiteSpace=wrap;html=1;strokeColor=none;strokeWidth=2;align=center;verticalAlign=middle;fontFamily=Helvetica;fontSize=12;fontColor=default;fillColor=#00F2F2;" vertex="1" parent="WIyWlLk6GJQsqaUBKTNV-1">
          <mxGeometry x="530" y="430" width="16" height="80" as="geometry" />
        </mxCell>
        <mxCell id="J6trh6Icr1Rc4E9CGpiM-247" value="" style="rounded=0;whiteSpace=wrap;html=1;strokeColor=none;strokeWidth=2;align=center;verticalAlign=middle;fontFamily=Helvetica;fontSize=12;fontColor=default;fillColor=#008A8A;" vertex="1" parent="WIyWlLk6GJQsqaUBKTNV-1">
          <mxGeometry x="756" y="430" width="16" height="80" as="geometry" />
        </mxCell>
        <mxCell id="J6trh6Icr1Rc4E9CGpiM-248" value="" style="rounded=0;whiteSpace=wrap;html=1;strokeColor=none;strokeWidth=2;align=center;verticalAlign=middle;fontFamily=Helvetica;fontSize=12;fontColor=default;fillColor=#009191;" vertex="1" parent="WIyWlLk6GJQsqaUBKTNV-1">
          <mxGeometry x="772" y="430" width="16" height="80" as="geometry" />
        </mxCell>
        <mxCell id="J6trh6Icr1Rc4E9CGpiM-249" value="" style="rounded=0;whiteSpace=wrap;html=1;strokeColor=none;strokeWidth=2;align=center;verticalAlign=middle;fontFamily=Helvetica;fontSize=12;fontColor=default;fillColor=#009E9E;" vertex="1" parent="WIyWlLk6GJQsqaUBKTNV-1">
          <mxGeometry x="788" y="430" width="16" height="80" as="geometry" />
        </mxCell>
        <mxCell id="J6trh6Icr1Rc4E9CGpiM-250" value="" style="rounded=0;whiteSpace=wrap;html=1;strokeColor=none;strokeWidth=2;align=center;verticalAlign=middle;fontFamily=Helvetica;fontSize=12;fontColor=default;fillColor=#00B3B3;" vertex="1" parent="WIyWlLk6GJQsqaUBKTNV-1">
          <mxGeometry x="804" y="430" width="16" height="80" as="geometry" />
        </mxCell>
        <mxCell id="J6trh6Icr1Rc4E9CGpiM-251" value="" style="rounded=0;whiteSpace=wrap;html=1;strokeColor=none;strokeWidth=2;align=center;verticalAlign=middle;fontFamily=Helvetica;fontSize=12;fontColor=default;fillColor=#006666;" vertex="1" parent="WIyWlLk6GJQsqaUBKTNV-1">
          <mxGeometry x="740" y="430" width="16" height="80" as="geometry" />
        </mxCell>
        <mxCell id="J6trh6Icr1Rc4E9CGpiM-253" value="" style="rounded=0;whiteSpace=wrap;html=1;strokeColor=none;strokeWidth=2;align=center;verticalAlign=middle;fontFamily=Helvetica;fontSize=12;fontColor=default;fillColor=#006666;" vertex="1" parent="WIyWlLk6GJQsqaUBKTNV-1">
          <mxGeometry x="920" y="300" width="16" height="80" as="geometry" />
        </mxCell>
        <mxCell id="J6trh6Icr1Rc4E9CGpiM-254" value="" style="rounded=0;whiteSpace=wrap;html=1;strokeColor=none;strokeWidth=2;align=center;verticalAlign=middle;fontFamily=Helvetica;fontSize=12;fontColor=default;fillColor=#006B6B;" vertex="1" parent="WIyWlLk6GJQsqaUBKTNV-1">
          <mxGeometry x="936" y="300" width="16" height="80" as="geometry" />
        </mxCell>
        <mxCell id="J6trh6Icr1Rc4E9CGpiM-255" value="" style="rounded=0;whiteSpace=wrap;html=1;strokeColor=none;strokeWidth=2;align=center;verticalAlign=middle;fontFamily=Helvetica;fontSize=12;fontColor=default;fillColor=#006B6B;" vertex="1" parent="WIyWlLk6GJQsqaUBKTNV-1">
          <mxGeometry x="952" y="300" width="16" height="80" as="geometry" />
        </mxCell>
        <mxCell id="J6trh6Icr1Rc4E9CGpiM-256" value="" style="rounded=0;whiteSpace=wrap;html=1;strokeColor=none;strokeWidth=2;align=center;verticalAlign=middle;fontFamily=Helvetica;fontSize=12;fontColor=default;fillColor=#006B6B;" vertex="1" parent="WIyWlLk6GJQsqaUBKTNV-1">
          <mxGeometry x="968" y="300" width="16" height="80" as="geometry" />
        </mxCell>
        <mxCell id="J6trh6Icr1Rc4E9CGpiM-257" value="" style="rounded=0;whiteSpace=wrap;html=1;strokeColor=none;strokeWidth=2;align=center;verticalAlign=middle;fontFamily=Helvetica;fontSize=12;fontColor=default;fillColor=#007D7D;" vertex="1" parent="WIyWlLk6GJQsqaUBKTNV-1">
          <mxGeometry x="984" y="300" width="16" height="80" as="geometry" />
        </mxCell>
        <mxCell id="J6trh6Icr1Rc4E9CGpiM-258" value="" style="rounded=0;whiteSpace=wrap;html=1;strokeColor=none;strokeWidth=2;align=center;verticalAlign=middle;fontFamily=Helvetica;fontSize=12;fontColor=default;fillColor=#008A8A;" vertex="1" parent="WIyWlLk6GJQsqaUBKTNV-1">
          <mxGeometry x="936" y="430" width="16" height="80" as="geometry" />
        </mxCell>
        <mxCell id="J6trh6Icr1Rc4E9CGpiM-259" value="" style="rounded=0;whiteSpace=wrap;html=1;strokeColor=none;strokeWidth=2;align=center;verticalAlign=middle;fontFamily=Helvetica;fontSize=12;fontColor=default;fillColor=#009191;" vertex="1" parent="WIyWlLk6GJQsqaUBKTNV-1">
          <mxGeometry x="952" y="430" width="16" height="80" as="geometry" />
        </mxCell>
        <mxCell id="J6trh6Icr1Rc4E9CGpiM-260" value="" style="rounded=0;whiteSpace=wrap;html=1;strokeColor=none;strokeWidth=2;align=center;verticalAlign=middle;fontFamily=Helvetica;fontSize=12;fontColor=default;fillColor=#009E9E;" vertex="1" parent="WIyWlLk6GJQsqaUBKTNV-1">
          <mxGeometry x="968" y="430" width="16" height="80" as="geometry" />
        </mxCell>
        <mxCell id="J6trh6Icr1Rc4E9CGpiM-261" value="" style="rounded=0;whiteSpace=wrap;html=1;strokeColor=none;strokeWidth=2;align=center;verticalAlign=middle;fontFamily=Helvetica;fontSize=12;fontColor=default;fillColor=#00B3B3;" vertex="1" parent="WIyWlLk6GJQsqaUBKTNV-1">
          <mxGeometry x="984" y="430" width="16" height="80" as="geometry" />
        </mxCell>
        <mxCell id="J6trh6Icr1Rc4E9CGpiM-262" value="" style="rounded=0;whiteSpace=wrap;html=1;strokeColor=none;strokeWidth=2;align=center;verticalAlign=middle;fontFamily=Helvetica;fontSize=12;fontColor=default;fillColor=#006666;" vertex="1" parent="WIyWlLk6GJQsqaUBKTNV-1">
          <mxGeometry x="920" y="430" width="16" height="80" as="geometry" />
        </mxCell>
        <mxCell id="J6trh6Icr1Rc4E9CGpiM-263" value="" style="rounded=0;whiteSpace=wrap;html=1;strokeColor=#FFFFFF;strokeWidth=1;align=center;verticalAlign=middle;fontFamily=Helvetica;fontSize=12;fontColor=default;fillColor=#006666;dashed=1;" vertex="1" parent="WIyWlLk6GJQsqaUBKTNV-1">
          <mxGeometry x="1010" y="300" width="16" height="80" as="geometry" />
        </mxCell>
        <mxCell id="J6trh6Icr1Rc4E9CGpiM-264" value="" style="rounded=0;whiteSpace=wrap;html=1;strokeColor=#FFFFFF;strokeWidth=1;align=center;verticalAlign=middle;fontFamily=Helvetica;fontSize=12;fontColor=default;fillColor=#006B6B;dashed=1;" vertex="1" parent="WIyWlLk6GJQsqaUBKTNV-1">
          <mxGeometry x="1026" y="300" width="16" height="80" as="geometry" />
        </mxCell>
        <mxCell id="J6trh6Icr1Rc4E9CGpiM-265" value="" style="rounded=0;whiteSpace=wrap;html=1;strokeColor=#FFFFFF;strokeWidth=1;align=center;verticalAlign=middle;fontFamily=Helvetica;fontSize=12;fontColor=default;fillColor=#006B6B;dashed=1;" vertex="1" parent="WIyWlLk6GJQsqaUBKTNV-1">
          <mxGeometry x="1042" y="300" width="16" height="80" as="geometry" />
        </mxCell>
        <mxCell id="J6trh6Icr1Rc4E9CGpiM-266" value="" style="rounded=0;whiteSpace=wrap;html=1;strokeColor=#FFFFFF;strokeWidth=1;align=center;verticalAlign=middle;fontFamily=Helvetica;fontSize=12;fontColor=default;fillColor=#006B6B;dashed=1;" vertex="1" parent="WIyWlLk6GJQsqaUBKTNV-1">
          <mxGeometry x="1058" y="300" width="16" height="80" as="geometry" />
        </mxCell>
        <mxCell id="J6trh6Icr1Rc4E9CGpiM-295" style="edgeStyle=orthogonalEdgeStyle;rounded=0;orthogonalLoop=1;jettySize=auto;html=1;entryX=0.5;entryY=0;entryDx=0;entryDy=0;fontFamily=Helvetica;fontSize=12;fontColor=default;strokeWidth=2;" edge="1" parent="WIyWlLk6GJQsqaUBKTNV-1" source="J6trh6Icr1Rc4E9CGpiM-267" target="J6trh6Icr1Rc4E9CGpiM-72">
          <mxGeometry relative="1" as="geometry">
            <Array as="points">
              <mxPoint x="1110" y="340" />
              <mxPoint x="1110" y="115" />
              <mxPoint x="463" y="115" />
            </Array>
          </mxGeometry>
        </mxCell>
        <mxCell id="J6trh6Icr1Rc4E9CGpiM-267" value="" style="rounded=0;whiteSpace=wrap;html=1;strokeColor=#FFFFFF;strokeWidth=1;align=center;verticalAlign=middle;fontFamily=Helvetica;fontSize=12;fontColor=default;fillColor=#007D7D;dashed=1;" vertex="1" parent="WIyWlLk6GJQsqaUBKTNV-1">
          <mxGeometry x="1074" y="300" width="16" height="80" as="geometry" />
        </mxCell>
        <mxCell id="J6trh6Icr1Rc4E9CGpiM-268" value="" style="rounded=0;whiteSpace=wrap;html=1;strokeColor=#FFFFFF;strokeWidth=1;align=center;verticalAlign=middle;fontFamily=Helvetica;fontSize=12;fontColor=default;fillColor=#008A8A;dashed=1;" vertex="1" parent="WIyWlLk6GJQsqaUBKTNV-1">
          <mxGeometry x="1026" y="430" width="16" height="80" as="geometry" />
        </mxCell>
        <mxCell id="J6trh6Icr1Rc4E9CGpiM-269" value="" style="rounded=0;whiteSpace=wrap;html=1;strokeColor=#FFFFFF;strokeWidth=1;align=center;verticalAlign=middle;fontFamily=Helvetica;fontSize=12;fontColor=default;fillColor=#009191;dashed=1;" vertex="1" parent="WIyWlLk6GJQsqaUBKTNV-1">
          <mxGeometry x="1042" y="430" width="16" height="80" as="geometry" />
        </mxCell>
        <mxCell id="J6trh6Icr1Rc4E9CGpiM-270" value="" style="rounded=0;whiteSpace=wrap;html=1;strokeColor=#FFFFFF;strokeWidth=1;align=center;verticalAlign=middle;fontFamily=Helvetica;fontSize=12;fontColor=default;fillColor=#009E9E;dashed=1;" vertex="1" parent="WIyWlLk6GJQsqaUBKTNV-1">
          <mxGeometry x="1058" y="430" width="16" height="80" as="geometry" />
        </mxCell>
        <mxCell id="J6trh6Icr1Rc4E9CGpiM-296" style="edgeStyle=orthogonalEdgeStyle;rounded=0;orthogonalLoop=1;jettySize=auto;html=1;entryX=0.5;entryY=0;entryDx=0;entryDy=0;fontFamily=Helvetica;fontSize=12;fontColor=default;strokeWidth=2;" edge="1" parent="WIyWlLk6GJQsqaUBKTNV-1" source="J6trh6Icr1Rc4E9CGpiM-271" target="J6trh6Icr1Rc4E9CGpiM-72">
          <mxGeometry relative="1" as="geometry">
            <Array as="points">
              <mxPoint x="1110" y="470" />
              <mxPoint x="1110" y="115" />
              <mxPoint x="463" y="115" />
            </Array>
          </mxGeometry>
        </mxCell>
        <mxCell id="J6trh6Icr1Rc4E9CGpiM-271" value="" style="rounded=0;whiteSpace=wrap;html=1;strokeColor=#FFFFFF;strokeWidth=1;align=center;verticalAlign=middle;fontFamily=Helvetica;fontSize=12;fontColor=default;fillColor=#00B3B3;dashed=1;" vertex="1" parent="WIyWlLk6GJQsqaUBKTNV-1">
          <mxGeometry x="1074" y="430" width="16" height="80" as="geometry" />
        </mxCell>
        <mxCell id="J6trh6Icr1Rc4E9CGpiM-272" value="" style="rounded=0;whiteSpace=wrap;html=1;strokeColor=#FFFFFF;strokeWidth=1;align=center;verticalAlign=middle;fontFamily=Helvetica;fontSize=12;fontColor=default;fillColor=#006666;dashed=1;" vertex="1" parent="WIyWlLk6GJQsqaUBKTNV-1">
          <mxGeometry x="1010" y="430" width="16" height="80" as="geometry" />
        </mxCell>
        <mxCell id="J6trh6Icr1Rc4E9CGpiM-275" value="" style="group" vertex="1" connectable="0" parent="WIyWlLk6GJQsqaUBKTNV-1">
          <mxGeometry x="820" y="200" width="80" height="80" as="geometry" />
        </mxCell>
        <mxCell id="J6trh6Icr1Rc4E9CGpiM-273" value="" style="endArrow=none;html=1;rounded=0;fontFamily=Helvetica;fontSize=12;fontColor=default;entryX=1;entryY=0;entryDx=0;entryDy=0;strokeColor=#FF3333;strokeWidth=3;" edge="1" parent="J6trh6Icr1Rc4E9CGpiM-275">
          <mxGeometry width="50" height="50" relative="1" as="geometry">
            <mxPoint y="80" as="sourcePoint" />
            <mxPoint x="80" as="targetPoint" />
          </mxGeometry>
        </mxCell>
        <mxCell id="J6trh6Icr1Rc4E9CGpiM-274" value="" style="endArrow=none;html=1;rounded=0;fontFamily=Helvetica;fontSize=12;fontColor=default;entryX=0;entryY=0;entryDx=0;entryDy=0;strokeColor=#FF3333;strokeWidth=3;exitX=1;exitY=1;exitDx=0;exitDy=0;" edge="1" parent="J6trh6Icr1Rc4E9CGpiM-275">
          <mxGeometry width="50" height="50" relative="1" as="geometry">
            <mxPoint x="80" y="80" as="sourcePoint" />
            <mxPoint as="targetPoint" />
          </mxGeometry>
        </mxCell>
        <mxCell id="J6trh6Icr1Rc4E9CGpiM-276" value="" style="group" vertex="1" connectable="0" parent="WIyWlLk6GJQsqaUBKTNV-1">
          <mxGeometry x="820" y="300" width="80" height="80" as="geometry" />
        </mxCell>
        <mxCell id="J6trh6Icr1Rc4E9CGpiM-277" value="" style="endArrow=none;html=1;rounded=0;fontFamily=Helvetica;fontSize=12;fontColor=default;entryX=1;entryY=0;entryDx=0;entryDy=0;strokeColor=#FF3333;strokeWidth=3;" edge="1" parent="J6trh6Icr1Rc4E9CGpiM-276">
          <mxGeometry width="50" height="50" relative="1" as="geometry">
            <mxPoint y="80" as="sourcePoint" />
            <mxPoint x="80" as="targetPoint" />
          </mxGeometry>
        </mxCell>
        <mxCell id="J6trh6Icr1Rc4E9CGpiM-278" value="" style="endArrow=none;html=1;rounded=0;fontFamily=Helvetica;fontSize=12;fontColor=default;entryX=0;entryY=0;entryDx=0;entryDy=0;strokeColor=#FF3333;strokeWidth=3;exitX=1;exitY=1;exitDx=0;exitDy=0;" edge="1" parent="J6trh6Icr1Rc4E9CGpiM-276">
          <mxGeometry width="50" height="50" relative="1" as="geometry">
            <mxPoint x="80" y="80" as="sourcePoint" />
            <mxPoint as="targetPoint" />
          </mxGeometry>
        </mxCell>
        <mxCell id="J6trh6Icr1Rc4E9CGpiM-279" value="" style="group" vertex="1" connectable="0" parent="WIyWlLk6GJQsqaUBKTNV-1">
          <mxGeometry x="820" y="430" width="80" height="80" as="geometry" />
        </mxCell>
        <mxCell id="J6trh6Icr1Rc4E9CGpiM-280" value="" style="endArrow=none;html=1;rounded=0;fontFamily=Helvetica;fontSize=12;fontColor=default;entryX=1;entryY=0;entryDx=0;entryDy=0;strokeColor=#FF3333;strokeWidth=3;" edge="1" parent="J6trh6Icr1Rc4E9CGpiM-279">
          <mxGeometry width="50" height="50" relative="1" as="geometry">
            <mxPoint y="80" as="sourcePoint" />
            <mxPoint x="80" as="targetPoint" />
          </mxGeometry>
        </mxCell>
        <mxCell id="J6trh6Icr1Rc4E9CGpiM-281" value="" style="endArrow=none;html=1;rounded=0;fontFamily=Helvetica;fontSize=12;fontColor=default;entryX=0;entryY=0;entryDx=0;entryDy=0;strokeColor=#FF3333;strokeWidth=3;exitX=1;exitY=1;exitDx=0;exitDy=0;" edge="1" parent="J6trh6Icr1Rc4E9CGpiM-279">
          <mxGeometry width="50" height="50" relative="1" as="geometry">
            <mxPoint x="80" y="80" as="sourcePoint" />
            <mxPoint as="targetPoint" />
          </mxGeometry>
        </mxCell>
        <mxCell id="J6trh6Icr1Rc4E9CGpiM-290" value="" style="endArrow=none;dashed=1;html=1;dashPattern=1 3;strokeWidth=2;rounded=0;fontFamily=Helvetica;fontSize=12;fontColor=default;" edge="1" parent="WIyWlLk6GJQsqaUBKTNV-1">
          <mxGeometry width="50" height="50" relative="1" as="geometry">
            <mxPoint x="295" y="420" as="sourcePoint" />
            <mxPoint x="295" y="390" as="targetPoint" />
          </mxGeometry>
        </mxCell>
        <mxCell id="J6trh6Icr1Rc4E9CGpiM-291" value="" style="endArrow=none;dashed=1;html=1;dashPattern=1 3;strokeWidth=2;rounded=0;fontFamily=Helvetica;fontSize=12;fontColor=default;" edge="1" parent="WIyWlLk6GJQsqaUBKTNV-1">
          <mxGeometry width="50" height="50" relative="1" as="geometry">
            <mxPoint x="466" y="420" as="sourcePoint" />
            <mxPoint x="466" y="390" as="targetPoint" />
          </mxGeometry>
        </mxCell>
        <mxCell id="J6trh6Icr1Rc4E9CGpiM-292" value="" style="endArrow=none;dashed=1;html=1;dashPattern=1 3;strokeWidth=2;rounded=0;fontFamily=Helvetica;fontSize=12;fontColor=default;" edge="1" parent="WIyWlLk6GJQsqaUBKTNV-1">
          <mxGeometry width="50" height="50" relative="1" as="geometry">
            <mxPoint x="640" y="420" as="sourcePoint" />
            <mxPoint x="640" y="390" as="targetPoint" />
          </mxGeometry>
        </mxCell>
        <mxCell id="J6trh6Icr1Rc4E9CGpiM-293" value="" style="endArrow=none;dashed=1;html=1;dashPattern=1 3;strokeWidth=2;rounded=0;fontFamily=Helvetica;fontSize=12;fontColor=default;" edge="1" parent="WIyWlLk6GJQsqaUBKTNV-1">
          <mxGeometry width="50" height="50" relative="1" as="geometry">
            <mxPoint x="820.76" y="420" as="sourcePoint" />
            <mxPoint x="820.76" y="390" as="targetPoint" />
          </mxGeometry>
        </mxCell>
        <mxCell id="J6trh6Icr1Rc4E9CGpiM-294" value="" style="endArrow=none;dashed=1;html=1;dashPattern=1 3;strokeWidth=2;rounded=0;fontFamily=Helvetica;fontSize=12;fontColor=default;" edge="1" parent="WIyWlLk6GJQsqaUBKTNV-1">
          <mxGeometry width="50" height="50" relative="1" as="geometry">
            <mxPoint x="1006.76" y="420" as="sourcePoint" />
            <mxPoint x="1006.76" y="390" as="targetPoint" />
          </mxGeometry>
        </mxCell>
      </root>
    </mxGraphModel>
  </diagram>
</mxfile>
